<svg width="172" height="178" viewBox="0 0 172 178" fill="none" xmlns="http://www.w3.org/2000/svg">
<path fill-rule="evenodd" clip-rule="evenodd" d="M92.2563 46.985L86 0.788086L79.7437 46.985C77.5726 47.3056 75.4551 47.7904 73.404 48.4264L47.7264 9.52379L62.1343 53.8618C60.3386 55.0838 58.6415 56.4399 57.0573 57.9156L17.0334 34.0007L49.2499 67.6944C48.1655 69.561 47.2191 71.5177 46.4249 73.5506L0 69.3708L43.6501 85.7514C43.569 86.8236 43.5277 87.9068 43.5277 88.9998C43.5277 90.0927 43.569 91.176 43.6501 92.2481L0 108.629L46.4249 104.449C47.2191 106.482 48.1655 108.439 49.2499 110.305L17.0334 143.999L57.0573 120.084C58.6415 121.56 60.3386 122.916 62.1343 124.138L47.7264 168.476L73.404 129.573C75.4551 130.209 77.5726 130.694 79.7437 131.014L86 177.211L92.2563 131.014C94.4274 130.694 96.545 130.209 98.596 129.573L124.274 168.476L109.866 124.138C111.661 122.916 113.359 121.56 114.943 120.084L154.967 143.999L122.75 110.305C123.835 108.439 124.781 106.482 125.575 104.449L172 108.629L128.35 92.2481C128.431 91.176 128.472 90.0927 128.472 88.9998C128.472 87.9068 128.431 86.8236 128.35 85.7514L172 69.3708L125.575 73.5506C124.781 71.5177 123.835 69.561 122.75 67.6944L154.967 34.0007L114.943 57.9156C113.359 56.4399 111.661 55.0838 109.866 53.8618L124.274 9.52379L98.596 48.4264C96.545 47.7904 94.4274 47.3056 92.2563 46.985Z" fill="#E3B376"/>
</svg>
